#!OML:ASF H:\ManfredETheater\Project 1\Capture day 1\Session 1\subject.ASF
:FULLY-SPECIFIED
:DEGREES
137
root 5.24261 17.3705 -22.9153 -177.166 45.5961 -179.822
lowerback 8.63731 0.979413 4.4312
upperback 0.264911 1.98193 2.77842
thorax -4.5267 0.960439 0.151884
lowerneck -17.522 -4.74496 -6.03979
upperneck 13.2864 -5.13895 1.45021
head 7.13698 -2.63857 0.869216
rclavicle -4.49253e-014 4.13472e-014
rhumerus -54.4215 16.9206 -96.4138
rradius 124.228
rwrist -5.65464
rhand -22.5168 15.0844
rfingers 7.12502
rthumb 3.90975 -14.8595
lclavicle -4.49253e-014 4.13472e-014
lhumerus -67.8989 -7.93454 100.108
lradius 107.384
lwrist 13.935
lhand -20.1089 -10.1704
lfingers 7.12502
lthumb 6.23469 19.7179
rfemur 1.28235 -7.64575 29.564
rtibia 51.9267
rfoot -1.87197 -14.9641
rtoes -23.0859
lfemur -44.4705 -3.98434 -8.65777
ltibia 33.9415
lfoot 6.76884 -3.41808
ltoes -21.3745
138
root 5.53851 17.3668 -23.294 -177.437 46.0618 -179.582
lowerback 8.35123 1.12581 4.35822
upperback 0.272333 2.15666 2.87968
thorax -4.36 1.05341 0.283699
lowerneck -17.3995 -4.74631 -6.04536
upperneck 13.6169 -5.12961 1.36005
head 7.22248 -2.64454 0.841386
rclavicle 1.14003e-013 -3.18055e-015
rhumerus -54.5315 17.1271 -95.8574
rradius 124.187
rwrist -6.17544
rhand -22.3462 14.8251
rfingers 7.12502
rthumb 4.07442 -15.1157
lclavicle 1.14003e-013 -3.18055e-015
lhumerus -68.2936 -7.35628 99.9719
lradius 107.52
lwrist 14.1028
lhand -20.1906 -10.0434
lfingers 7.12502
lthumb 6.15584 19.8472
rfemur 1.69012 -7.58867 28.8669
rtibia 54.0816
rfoot -1.75198 -15.2353
rtoes -22.0908
lfemur -44.0507 -4.71019 -8.29949
ltibia 31.9903
lfoot 8.68818 -2.60128
ltoes -20.71
139
root 5.83211 17.3472 -23.67 -177.67 46.5841 -179.243
lowerback 8.12475 1.25989 4.34016
upperback 0.282775 2.32642 2.99625
thorax -4.22351 1.14304 0.401096
lowerneck -17.2903 -4.72816 -6.02288
upperneck 13.9642 -5.10109 1.2812
head 7.31466 -2.63865 0.81467
rclavicle -6.15239e-014 -6.20208e-014
rhumerus -54.5622 17.2829 -95.276
rradius 123.978
rwrist -6.57635
rhand -22.1697 14.578
rfingers 7.12502
rthumb 4.24486 -15.3594
lclavicle -6.15239e-014 -6.20208e-014
lhumerus -68.6577 -6.82608 99.7924
lradius 107.626
lwrist 14.1789
lhand -20.2918 -9.96738
lfingers 7.12502
lthumb 6.05811 19.926
rfemur 1.93531 -7.42718 28.2784
rtibia 56.4856
rfoot -1.84874 -15.827
rtoes -21.3632
lfemur -43.642 -5.17719 -7.98619
ltibia 30.7403
lfoot 10.3279 -1.74546
ltoes -19.7627
140
root 6.12307 17.3117 -24.0425 -177.861 47.1401 -178.772
lowerback 7.99851 1.3706 4.39136
upperback 0.297205 2.48159 3.13978
thorax -4.13885 1.22452 0.507634
lowerneck -17.1982 -4.69009 -5.9768
upperneck 14.3249 -5.05099 1.21142
head 7.41307 -2.62008 0.789303
rclavicle -2.47487e-014 9.54166e-015
rhumerus -54.5301 17.3913 -94.6864
rradius 123.616
rwrist -6.80223
rhand -21.9797 14.3683
rfingers 7.12502
rthumb 4.42842 -15.5654
lclavicle -2.47487e-014 9.54166e-015
lhumerus -69 -6.35236 99.5858
lradius 107.72
lwrist 14.1579
lhand -20.4179 -9.93483
lfingers 7.12502
lthumb 5.93639 19.962
rfemur 2.04366 -7.20224 27.821
rtibia 59.0847
rfoot -2.05941 -16.6059
rtoes -20.8039
lfemur -43.2057 -5.28747 -7.77724
ltibia 30.1754
lfoot 11.7883 -1.16602
ltoes -18.8746
141
root 6.41118 17.2602 -24.4111 -178.026 47.7002 -178.173
lowerback 7.98809 1.44561 4.51385
upperback 0.322162 2.60697 3.30876
thorax -4.1077 1.29047 0.601312
lowerneck -17.1233 -4.63336 -5.91092
upperneck 14.6896 -4.97962 1.14815
head 7.51481 -2.58932 0.765129
rclavicle -9.93923e-016 -6.83819e-014
rhumerus -54.4359 17.4441 -94.1122
rradius 123.113
rwrist -6.82727
rhand -21.7539 14.2029
rfingers 7.12502
rthumb 4.64639 -15.7262
lclavicle -9.93923e-016 -6.83819e-014
lhumerus -69.3184 -5.94749 99.3638
lradius 107.816
lwrist 14.0469
lhand -20.5711 -9.92796
lfingers 7.12502
lthumb 5.78844 19.973
rfemur 2.03996 -6.96585 27.4831
rtibia 61.8259
rfoot -2.34903 -17.4251
rtoes -20.3125
lfemur -42.702 -4.99761 -7.72299
ltibia 30.2606
lfoot 12.9495 -0.964995
ltoes -17.7802
142
root 6.69631 17.1938 -24.7757 -178.198 48.2416 -177.479
lowerback 8.10434 1.47692 4.69138
upperback 0.365217 2.69075 3.49291
thorax -4.12832 1.33522 0.681147
lowerneck -17.0624 -4.55885 -5.82867
upperneck 15.0379 -4.88988 1.10167
head 7.6131 -2.54693 0.745984
rclavicle -1.17681e-013 -2.38542e-014
rhumerus -54.289 17.4344 -93.5787
rradius 122.487
rwrist -6.67331
rhand -21.5055 14.0821
rfingers 7.12502
rthumb 4.88626 -15.8416
lclavicle -1.17681e-013 -2.38542e-014
lhumerus -69.6024 -5.62103 99.1335
lradius 107.926
lwrist 13.8658
lhand -20.7386 -9.93505
lfingers 7.12502
lthumb 5.62673 19.9702
rfemur 1.94416 -6.76101 27.23
rtibia 64.6593
rfoot -2.6736 -18.1908
rtoes -19.7052
lfemur -42.1194 -4.39062 -7.80691
ltibia 30.9587
lfoot 13.5935 -1.33553
ltoes -16.8863
143
root 6.9782 17.1132 -25.1355 -178.401 48.7383 -176.723
lowerback 8.35814 1.45865 4.9014
upperback 0.42198 2.72491 3.68775
thorax -4.21211 1.35479 0.755569
lowerneck -16.9949 -4.46601 -5.73004
upperneck 15.3486 -4.78042 1.06059
head 7.69707 -2.49334 0.728891
rclavicle -4.84538e-014 -1.30403e-013
rhumerus -54.118 17.3498 -93.1059
rradius 121.759
rwrist -6.38002
rhand -21.236 13.9932
rfingers 7.12502
rthumb 5.14647 -15.9243
lclavicle -4.84538e-014 -1.30403e-013
lhumerus -69.8549 -5.37577 98.9185
lradius 108.062
lwrist 13.6529
lhand -20.9063 -9.92698
lfingers 7.12502
lthumb 5.4648 19.9826
rfemur 1.76225 -6.62606 27.0369
rtibia 67.5418
rfoot -3.05967 -18.8677
rtoes -19.0795
lfemur -41.4701 -3.62384 -7.95585
ltibia 32.2355
lfoot 13.5402 -2.28201
ltoes -15.694
144
root 7.25646 17.0206 -25.4901 -178.714 49.1683 -176.024
lowerback 8.73792 1.38998 5.07358
upperback 0.490309 2.69897 3.86673
thorax -4.35658 1.34418 0.838254
lowerneck -16.9064 -4.35479 -5.60097
upperneck 15.5992 -4.65287 1.00895
head 7.75596 -2.4301 0.706542
rclavicle -4.38817e-014 1.11319e-014
rhumerus -53.9239 17.1687 -92.7258
rradius 120.927
rwrist -5.99332
rhand -20.9634 13.9265
rfingers 7.12502
rthumb 5.40968 -15.9845
lclavicle -4.38817e-014 1.11319e-014
lhumerus -70.0629 -5.21299 98.7315
lradius 108.226
lwrist 13.4313
lhand -21.0626 -9.88967
lfingers 7.12502
lthumb 5.31387 20.0237
rfemur 1.48598 -6.5891 26.8116
rtibia 70.4407
rfoot -3.53603 -19.4385
rtoes -18.6062
lfemur -40.7667 -2.87642 -8.16256
ltibia 34.0465
lfoot 12.527 -3.62285
ltoes -14.4596
145
root 7.53055 16.9195 -25.8385 -179.212 49.5237 -175.513
lowerback 9.22688 1.27847 5.13123
upperback 0.56084 2.6106 4.00162
thorax -4.56366 1.3023 0.944426
lowerneck -16.7845 -4.22102 -5.41938
upperneck 15.7921 -4.50233 0.919636
head 7.78715 -2.35618 0.667114
rclavicle -4.91992e-015 -3.02153e-014
rhumerus -53.7302 16.8727 -92.4578
rradius 120.002
rwrist -5.57196
rhand -20.6902 13.8716
rfingers 7.12502
rthumb 5.67346 -16.0324
lclavicle -4.91992e-015 -3.02153e-014
lhumerus -70.2141 -5.13163 98.58
lradius 108.409
lwrist 13.2191
lhand -21.1724 -9.81218
lfingers 7.12502
lthumb 5.20792 20.1038
rfemur 1.085 -6.66367 26.4586
rtibia 73.3327
rfoot -4.09259 -19.8927
rtoes -18.3486
lfemur -40.0475 -2.25076 -8.46897
ltibia 36.3181
lfoot 10.5752 -4.97897
ltoes -13.1152
146
root 7.79981 16.8137 -26.1789 -180.019 49.7927 -175.403
lowerback 9.7971 1.13666 4.92897
upperback 0.61394 2.45175 4.06014
thorax -4.84175 1.22615 1.12499
lowerneck -16.6008 -4.06126 -5.19396
upperneck 15.9328 -4.32111 0.784941
head 7.78756 -2.26914 0.610679
rclavicle -1.74185e-014 -4.45278e-014
rhumerus -53.562 16.4576 -92.3203
rradius 118.974
rwrist -5.13814
rhand -20.4672 13.8135
rfingers 7.12502
rthumb 5.88881 -16.0847
lclavicle -1.74185e-014 -4.45278e-014
lhumerus -70.2976 -5.11071 98.4876
lradius 108.592
lwrist 13.0642
lhand -21.2543 -9.71181
lfingers 7.12502
lthumb 5.12881 20.2061
rfemur 0.504387 -6.84433 25.8348
rtibia 76.205
rfoot -4.75679 -20.1953
rtoes -18.1908
lfemur -39.357 -1.8268 -8.99161
ltibia 38.9516
lfoot 7.85757 -5.96772
ltoes -11.7142
147
root 8.06435 16.7079 -26.5094 -181.27 49.961 -175.929
lowerback 10.3979 0.983476 4.30626
upperback 0.646188 2.21218 4.00072
thorax -5.16738 1.1136 1.43176
lowerneck -16.386 -3.87427 -4.92429
upperneck 16.0464 -4.10463 0.60214
head 7.77104 -2.1669 0.535854
rclavicle 2.85753e-015 -2.06736e-014
rhumerus -53.4031 15.9157 -92.3124
rradius 117.83
rwrist -4.7293
rhand -20.2933 13.7437
rfingers 7.12502
rthumb 6.05666 -16.1497
lclavicle 2.85753e-015 -2.06736e-014
lhumerus -70.2652 -5.14055 98.4445
lradius 108.741
lwrist 12.9871
lhand -21.2798 -9.60627
lfingers 7.12502
lthumb 5.10423 20.3123
rfemur -0.321752 -7.1317 24.7759
rtibia 79.0438
rfoot -5.55151 -20.2897
rtoes -18.1851
lfemur -38.7277 -1.62408 -9.89482
ltibia 41.832
lfoot 4.66485 -6.43275
ltoes -10.6169
148
root 8.32338 16.6051 -26.8287 -182.923 50.0071 -177.097
lowerback 10.9778 0.83279 3.26979
upperback 0.660122 1.89789 3.81897
thorax -5.5032 0.970467 1.86035
lowerneck -16.2109 -3.67189 -4.63196
upperneck 16.1794 -3.86264 0.388302
head 7.76704 -2.05376 0.448874
rclavicle 1.46181e-013 -5.88403e-014
rhumerus -53.2274 15.2301 -92.4086
rradius 116.551
rwrist -4.37272
rhand -20.1781 13.6643
rfingers 7.12502
rthumb 6.16787 -16.2259
lclavicle 1.46181e-013 -5.88403e-014
lhumerus -70.0525 -5.24073 98.4439
lradius 108.814
lwrist 13.0214
lhand -21.258 -9.50379
lfingers 7.12502
lthumb 5.12524 20.4142
rfemur -1.44619 -7.51584 23.2842
rtibia 81.8138
rfoot -6.51747 -20.1624
rtoes -18.2858
lfemur -38.1984 -1.59723 -11.2035
ltibia 44.8393
lfoot 1.38353 -6.36714
ltoes -9.66418
149
root 8.57573 16.5078 -27.1363 -184.758 49.9381 -178.672
lowerback 11.4879 0.682361 1.99488
upperback 0.671096 1.52383 3.53883
thorax -5.79548 0.804396 2.33837
lowerneck -16.1562 -3.46029 -4.33498
upperneck 16.3634 -3.6037 0.183617
head 7.80184 -1.93137 0.363368
rclavicle -1.83938e-014 3.26007e-014
rhumerus -52.9893 14.3986 -92.5903
rradius 115.12
rwrist -4.05901
rhand -20.1389 13.5565
rfingers 7.12502
rthumb 6.20569 -16.3326
lclavicle -1.83938e-014 3.26007e-014
lhumerus -69.577 -5.43306 98.4404
lradius 108.756
lwrist 13.2092
lhand -21.1891 -9.42844
lfingers 7.12502
lthumb 5.19175 20.488
rfemur -2.91985 -7.96972 21.55
rtibia 84.4586
rfoot -7.62052 -19.837
rtoes -18.5966
lfemur -37.8017 -1.66608 -12.7663
ltibia 47.864
lfoot -1.72008 -5.94504
ltoes -8.82123
